<?xml version="1.0" encoding="UTF-8" standalone="no"?>
<svg
   version="1.1"
   width="1200"
   height="600"
   id="svg10"
   sodipodi:docname="HUSP.svg"
   inkscape:version="1.1 (c68e22c387, 2021-05-23)"
   inkscape:export-filename="E:\CCCP\Haer SSR\HWSP.png"
   inkscape:export-xdpi="327.67999"
   inkscape:export-ydpi="327.67999"
   xmlns:inkscape="http://www.inkscape.org/namespaces/inkscape"
   xmlns:sodipodi="http://sodipodi.sourceforge.net/DTD/sodipodi-0.dtd"
   xmlns="http://www.w3.org/2000/svg"
   xmlns:svg="http://www.w3.org/2000/svg"
   xmlns:rdf="http://www.w3.org/1999/02/22-rdf-syntax-ns#"
   xmlns:cc="http://creativecommons.org/ns#"
   xmlns:dc="http://purl.org/dc/elements/1.1/">
  <sodipodi:namedview
     id="namedview27"
     pagecolor="#505050"
     bordercolor="#ffffff"
     borderopacity="1"
     inkscape:pageshadow="0"
     inkscape:pageopacity="0"
     inkscape:pagecheckerboard="1"
     showgrid="false"
     inkscape:zoom="1.173208"
     inkscape:cx="544.23427"
     inkscape:cy="310.26041"
     inkscape:window-width="2160"
     inkscape:window-height="1334"
     inkscape:window-x="-11"
     inkscape:window-y="-11"
     inkscape:window-maximized="1"
     inkscape:current-layer="svg10" />
  <metadata
     id="metadata16">
    <rdf:RDF>
      <cc:Work
         rdf:about="">
        <dc:format>image/svg+xml</dc:format>
        <dc:type
           rdf:resource="http://purl.org/dc/dcmitype/StillImage" />
      </cc:Work>
    </rdf:RDF>
  </metadata>
  <defs
     id="defs14" />
  <g
     id="g166">
    <path
       d="M 0,0 H 1200 V 600 H 0 Z"
       id="path2-6"
       style="fill:#cc0000;fill-opacity:1" />
    <g
       id="g2204"
       transform="matrix(1.0116328,0,0,1.0116328,87.650591,-8.969585)">
      <path
         sodipodi:type="star"
         style="fill:#cc0000;fill-opacity:1;stroke-width:0.118"
         id="path221"
         inkscape:flatsided="false"
         sodipodi:sides="5"
         sodipodi:cx="588.40967"
         sodipodi:cy="326.18704"
         sodipodi:r1="158.98524"
         sodipodi:r2="79.492622"
         sodipodi:arg1="0.95986122"
         sodipodi:arg2="1.5881797"
         inkscape:rounded="0"
         inkscape:randomized="0"
         inkscape:transform-center-x="-0.85404984"
         inkscape:transform-center-y="-14.367271"
         d="m 679.60896,456.41376 -92.58107,-50.74611 -94.28906,47.49734 19.65329,-103.73124 -74.30957,-74.99674 104.72747,-13.36332 48.36322,-93.84787 45.07184,95.47225 104.19969,16.99556 -76.87154,72.36842 z" />
      <path
         id="path11728"
         d="M 585.82677,107.71654 536.75389,258.74652 H 377.95276 l 128.4726,93.3405 -49.07289,151.02992 128.4743,-93.34231 128.47436,93.34231 -49.07289,-151.02992 128.47255,-93.3405 H 634.89972 Z m 0,78.68601 31.40612,96.65837 h 101.6343 l -82.22402,59.74021 31.40605,96.65837 -82.22245,-59.73852 -82.22239,59.73852 31.40605,-96.65837 -82.22408,-59.74021 h 101.63431 z"
         style="fill:#ffd700;fill-opacity:1;stroke:none;stroke-width:0.87429px;stroke-linecap:butt;stroke-linejoin:miter;stroke-opacity:1" />
      <g
         style="fill:#ffd700;fill-opacity:1"
         id="g2900"
         transform="matrix(0.74783152,0,0,0.74588077,437.54058,182.37425)">
        <path
           id="rect4165-6"
           d="m 137.43744,171.69421 18.86296,18.9937 17.78834,-17.66589 c 27.05847,29.021 55.43807,56.99501 82.28704,86.12782 4.03444,4.06233 10.59815,4.085 14.66056,0.0506 4.06232,-4.03445 4.08499,-10.59815 0.0506,-14.66056 -28.81871,-27.1901 -57.72545,-54.60143 -86.55328,-81.89095 l 23.96499,-23.80003 -33.34026,-4.61605 z"
           style="fill:#ffd700;fill-opacity:1;stroke:none;stroke-width:0.489191;stroke-miterlimit:4;stroke-dasharray:none;stroke-dashoffset:0;stroke-opacity:1" />
        <path
           id="path4179-3"
           d="m 198.2887,110.1955 c 15.51743,8.7394 27.29872,21.28122 34.2484,34.3924 7.04394,13.28902 10.13959,27.16218 10.20325,38.25433 0.13054,22.74374 -18.43771,41.18184 -41.18183,41.18184 -12.13597,0 -23.04607,-5.24868 -30.58302,-13.60085 l -4.16863,3.51033 c -0.70999,-0.27231 -1.46387,-0.41221 -2.22429,-0.41276 -1.82948,1.9e-4 -3.56621,0.80531 -4.74859,2.20136 -2.97368,0.38896 -5.46251,2.44529 -6.40534,5.29224 -3.13486,6.28843 -8.63524,11.21997 -15.29104,13.4776 -0.0637,0.0216 -0.11992,0.05 -0.1758,0.0783 -3.07749,1.12758 -6.16259,3.1643 -8.78919,5.80245 -5.19155,5.23656 -7.72858,11.93658 -6.30024,16.63822 -0.14098,0.40857 -0.21361,0.83759 -0.21498,1.26979 1.5e-4,2.17082 1.75991,3.93058 3.93073,3.93073 0.54341,-0.002 1.08053,-0.11639 1.57745,-0.33632 4.69369,1.05881 11.06885,-1.54582 16.05444,-6.55917 2.82624,-2.85072 4.94356,-6.22349 5.98303,-9.53062 2.31696,-6.62278 7.29699,-12.01856 13.62281,-15.05312 0.15105,-0.0725 0.27303,-0.14714 0.38218,-0.22358 2.12082,-1.01408 3.67251,-2.92895 4.225,-5.2139 9.70222,11.44481 24.25255,18.75299 40.51876,19.13577 29.83352,0.70205 52.13299,-21.25802 53.16414,-52.83642 0.51894,-15.89259 -5.62993,-36.3847 -19.6412,-53.19089 -10.70835,-12.84441 -26.40987,-23.50795 -44.18699,-28.20777 z"
           style="fill:#ffd700;fill-opacity:1;stroke:none;stroke-width:0.500035;stroke-miterlimit:4;stroke-dasharray:none;stroke-dashoffset:0;stroke-opacity:1" />
      </g>
    </g>
    <g
       id="g2241"
       transform="translate(-2.2888184e-5)">
      <rect
         style="fill:#3b933b;fill-opacity:1;fill-rule:evenodd;stroke:none;stroke-width:0.00648182;stroke-miterlimit:4;stroke-dasharray:none;stroke-opacity:1"
         id="rect10532-8-2"
         width="600"
         height="100"
         x="-600"
         y="-100.00002"
         transform="matrix(0,-1,-1,0,0,0)" />
      <g
         id="g2152"
         transform="matrix(0.99996386,0,0,1,-55.645577,-22.340981)">
        <path
           style="clip-rule:evenodd;fill:#3b93bf;fill-opacity:1;fill-rule:evenodd;stroke-width:0.499996;image-rendering:optimizeQuality;shape-rendering:geometricPrecision;text-rendering:geometricPrecision"
           class="fil1"
           d="m 236.64986,22.345981 h -95.9992 V 622.34098 h 95.8092 c -0.085,-2.29998 -0.145,-4.69996 -0.37499,-6.65495 a 62.234481,62.234481 0 0 0 -3.43498,-14.43988 c -0.73999,-2.00998 -1.54998,-3.88996 -2.33998,-5.77995 a 144.4488,144.4488 0 0 1 -2.31498,-5.81495 62.889475,62.889475 0 0 1 -3.43497,-14.39988 c -0.34999,-2.95998 -0.56499,-6.24995 -0.56499,-10.03492 0,-3.78497 0.22,-7.10994 0.56499,-10.06491 a 62.424479,62.424479 0 0 1 3.43497,-14.43488 142.90881,142.90881 0 0 1 2.31498,-5.77995 c 0.785,-1.89499 1.59999,-3.79997 2.33998,-5.81496 a 62.039483,62.039483 0 0 0 3.43498,-14.40488 c 0.34999,-2.95497 0.56499,-6.24994 0.56499,-10.02991 0,-3.78497 -0.22,-7.10994 -0.56499,-10.06492 a 62.229481,62.229481 0 0 0 -3.43498,-14.40488 c -0.73999,-2.00998 -1.54998,-3.88997 -2.33998,-5.77995 a 143.03881,143.03881 0 0 1 -2.31498,-5.78495 63.55947,63.55947 0 0 1 -3.43497,-14.46488 c -0.34999,-2.95498 -0.56499,-6.24995 -0.56499,-10.02992 0,-3.78497 0.22,-7.10994 0.56499,-10.06491 a 63.59947,63.59947 0 0 1 3.43497,-14.40488 142.76881,142.76881 0 0 1 2.31498,-5.77995 c 0.785,-1.89499 1.59999,-3.77497 2.33998,-5.78496 a 63.299472,63.299472 0 0 0 3.43498,-14.46488 c 0.34999,-2.95997 0.56499,-6.24994 0.56499,-10.03491 0,-3.77997 -0.22,-7.10494 -0.56499,-10.05992 -0.345,-2.95497 -0.845,-5.50995 -1.43499,-7.87493 a 63.374471,63.374471 0 0 0 -1.99999,-6.53495 c -0.73999,-2.00498 -1.54998,-3.88997 -2.33998,-5.77995 a 143.27881,143.27881 0 0 1 -2.31498,-5.77995 63.57447,63.57447 0 0 1 -3.43497,-14.46988 c -0.34999,-2.94998 -0.56499,-6.24995 -0.56499,-10.02992 0,-3.78497 0.22,-7.07494 0.56499,-10.02991 a 63.609469,63.609469 0 0 1 3.43497,-14.43988 142.90381,142.90381 0 0 1 2.31498,-5.77995 c 0.785,-1.88999 1.59999,-3.76997 2.33998,-5.77996 a 62.749477,62.749477 0 0 0 3.43498,-14.40488 c 0.34999,-2.95997 0.56499,-6.27994 0.56499,-10.06491 0,-3.78497 -0.22,-7.10494 -0.56499,-10.05992 a 61.699485,61.699485 0 0 0 -3.43498,-14.40988 c -0.73999,-2.00998 -1.54998,-3.91997 -2.33998,-5.80995 a 142.90381,142.90381 0 0 1 -2.31498,-5.77995 62.919475,62.919475 0 0 1 -3.43497,-14.40988 c -0.34999,-2.94998 -0.56499,-6.27995 -0.56499,-10.05992 0,-3.78497 0.22,-7.07494 0.56499,-10.02991 a 62.439479,62.439479 0 0 1 3.43497,-14.43988 144.4488,144.4488 0 0 1 2.31498,-5.80996 c 0.785,-1.89498 1.59999,-3.77496 2.33998,-5.78495 a 62.719477,62.719477 0 0 0 3.43498,-14.39988 c 0.34999,-2.95997 0.56499,-6.28494 0.56499,-10.06491 0,-3.78497 -0.22,-7.07494 -0.56499,-10.03492 a 62.214481,62.214481 0 0 0 -3.43498,-14.43488 c -0.73999,-2.00998 -1.54998,-3.91997 -2.33998,-5.81495 a 142.72881,142.72881 0 0 1 -2.31498,-5.77995 62.929475,62.929475 0 0 1 -3.43497,-14.404882 c -0.34999,-2.954975 -0.56499,-6.279948 -0.56499,-10.059916 0,-3.784969 0.22,-7.079941 0.56499,-10.034917 0.345,-2.949975 0.845,-5.569953 1.43499,-7.934933 a 62.264481,62.264481 0 0 1 1.99998,-6.469946 c 0.74,-2.009984 1.52499,-3.949967 2.31498,-5.844952 0.785,-1.889984 1.59999,-3.769968 2.33998,-5.779951 a 62.049483,62.049483 0 0 0 3.43498,-14.40488 c 0.28999,-2.45998 0.50499,-5.169957 0.56499,-8.189932 z"
           id="path5522" />
        <path
           style="clip-rule:evenodd;fill:#ffffff;fill-rule:evenodd;stroke-width:0.499996;image-rendering:optimizeQuality;shape-rendering:geometricPrecision;text-rendering:geometricPrecision"
           class="fil4"
           d="m 240.64983,140.065 c -0.215,-14.94488 -3.65997,-23.44981 -6.71995,-30.77974 -3.15497,-7.56994 -5.93495,-13.879888 -5.93495,-28.284768 0,-14.39988 2.77998,-20.714827 5.93495,-28.279764 3.02998,-7.26494 6.41995,-15.67487 6.68495,-30.374747 h -7.99993 c -0.225,13.099891 -2.88498,19.17484 -5.89996,26.40478 -3.15497,7.569937 -6.71994,16.389863 -6.71994,32.249731 0,15.859868 3.56497,24.684798 6.71994,32.249728 3.15498,7.56494 5.93495,13.87989 5.93495,28.28477 0,14.39988 -2.77997,20.71482 -5.93495,28.27976 -3.15497,7.56494 -6.71994,16.38986 -6.71994,32.24973 0,15.85987 3.56497,24.6498 6.71994,32.21473 3.15498,7.56994 5.93495,13.91489 5.93495,28.31477 0,14.39988 -2.77997,20.71482 -5.93495,28.27976 -3.15497,7.56494 -6.71994,16.35987 -6.71994,32.21973 0,15.85987 3.56497,24.6848 6.71994,32.24973 3.15498,7.56494 5.93495,13.87989 5.93495,28.27977 0,14.39988 -2.77997,20.74982 -5.93495,28.31476 -3.15497,7.56494 -6.71994,16.35987 -6.71994,32.21973 0,15.85487 3.56497,24.6798 6.71994,32.24973 3.15498,7.56494 5.93495,13.87489 5.93495,28.27977 0,14.39988 -2.77997,20.71483 -5.93495,28.27976 -3.15497,7.56494 -6.71994,16.38987 -6.71994,32.24973 0,15.85987 3.56497,24.6498 6.71994,32.21973 2.89998,6.93995 5.46496,12.8499 5.86996,24.8998 h 7.99993 c -0.465,-13.74989 -3.72997,-21.82982 -6.64995,-28.83976 -3.15997,-7.56494 -5.93995,-13.87989 -5.93995,-28.27977 0,-14.39988 2.77998,-20.71482 5.93495,-28.27976 3.15498,-7.56494 6.71495,-16.38986 6.71495,-32.24973 0,-15.85987 -3.55997,-24.6848 -6.71495,-32.24973 -3.15497,-7.56494 -5.93495,-13.87989 -5.93495,-28.28477 0,-14.39988 2.77998,-20.71482 5.93495,-28.27976 3.15498,-7.56494 6.71495,-16.38986 6.71495,-32.24973 0,-15.85987 -3.55997,-24.6498 -6.71495,-32.21973 -3.15497,-7.55994 -5.92995,-13.90989 -5.92995,-28.30977 0,-14.39988 2.77998,-20.71482 5.93495,-28.27976 3.14998,-7.56994 6.71495,-16.35986 6.71495,-32.21973 0,-15.85987 -3.55997,-24.6848 -6.71495,-32.24973 -3.15497,-7.56494 -5.93495,-13.87989 -5.93495,-28.27977 0,-14.39988 2.77998,-20.74982 5.93495,-28.31476 3.14998,-7.56494 6.71495,-16.35487 6.71495,-32.21973 0,-0.495 0.01,-0.98499 0,-1.46499 z"
           id="path5524" />
        <path
           style="clip-rule:evenodd;fill:#ffffff;fill-rule:evenodd;stroke-width:0.499996;image-rendering:optimizeQuality;shape-rendering:geometricPrecision;text-rendering:geometricPrecision"
           class="fil4"
           d="m 220,140 c -0.235,-15.67487 -4.03497,-25.35979 -7.09494,-32.68473 -3.14997,-7.564935 -5.52495,-12.639892 -5.52495,-26.314778 0,-13.674886 2.36998,-18.749844 5.52495,-26.309781 3.03997,-7.279939 6.78494,-16.849859 7.06494,-32.34973 h -15.96487 c -0.20999,12.294898 -2.51998,17.264856 -5.52995,24.474796 -3.15497,7.564937 -7.08994,17.599853 -7.08994,34.184715 0,16.589861 3.93497,26.649778 7.08994,34.219718 3.15497,7.56493 5.52995,12.63989 5.52995,26.30978 0,13.67488 -2.37498,18.74984 -5.52995,26.31478 -3.15497,7.56493 -7.08994,17.62985 -7.08994,34.21971 0,16.58486 3.93497,26.61978 7.08994,34.18472 3.15497,7.56493 5.52995,12.66989 5.52995,26.34478 0,13.67488 -2.37498,18.74984 -5.52995,26.30978 -3.15497,7.56993 -7.08994,17.59985 -7.08994,34.18971 0,16.58986 3.93497,26.64978 7.08994,34.21972 3.15497,7.56493 5.52995,12.63489 5.52995,26.30978 0,13.67488 -2.37498,18.74984 -5.52995,26.31478 -3.15497,7.56494 -7.08994,17.62985 -7.08994,34.21471 0,16.58986 3.93497,26.65478 7.08994,34.21972 3.15497,7.56493 5.52995,12.63989 5.52995,26.31478 0,13.66988 -2.37498,18.74484 -5.52995,26.30978 -3.15497,7.56494 -7.08994,17.62985 -7.08994,34.21971 0,16.58987 3.93497,26.64978 7.08994,34.21972 2.87998,6.89994 5.09996,11.7349 5.46495,22.89981 H 219.94 c -0.5,-14.58488 -4.09997,-23.7748 -7.03494,-30.80975 -3.14997,-7.56493 -5.52495,-12.63489 -5.52495,-26.30978 0,-13.67488 2.36998,-18.74984 5.52495,-26.31478 C 216.06503,531.33674 220,521.27182 220,504.68696 c 0,-16.58986 -3.93497,-26.65478 -7.09494,-34.21972 -3.14997,-7.56493 -5.52495,-12.63989 -5.52495,-26.30978 0,-13.67488 2.36998,-18.74984 5.52495,-26.31478 C 216.06503,410.27775 220,400.21283 220,383.62297 c 0,-16.58486 -3.93497,-26.64978 -7.09494,-34.21472 -3.14997,-7.56993 -5.52495,-12.63989 -5.52495,-26.31478 0,-13.67488 2.36998,-18.74984 5.52495,-26.30978 C 216.06503,289.21376 220,279.18384 220,262.59398 c 0,-16.58986 -3.93497,-26.64978 -7.09494,-34.21972 -3.14997,-7.56493 -5.52495,-12.63489 -5.52495,-26.30978 0,-13.67488 2.36998,-18.74984 5.52495,-26.31478 C 216.06503,168.18476 220,158.11985 220,141.53499 Z"
           id="path5526" />
      </g>
    </g>
  </g>
</svg>
